<?xml version="1.0" encoding="UTF-8"?>
<svg xmlns="http://www.w3.org/2000/svg" id="Laag_2" data-name="Laag 2" viewBox="0 0 688.91 199.08">
  <defs>
    <style>
      .cls-1 {
        fill: #1f2e53;
      }

      .cls-2 {
        fill: #6ede92;
      }
    </style>
  </defs>
  <g id="Laag_1-2" data-name="Laag 1">
    <path class="cls-2" d="m187.3,71.73l-18.98-19.93c1.64-12.92,2.49-26.13,2.49-39.51,0-6.78-5.5-12.28-12.28-12.28s-12.28,5.5-12.28,12.28c0,5.35-.15,10.64-.43,15.89l-14.03-14.74C123.54,4.77,112.63,0,101.05,0s-22.5,4.77-30.74,13.43L14.79,71.73C5.39,80.64,0,93.43,0,106.88v45.44c0,4.74.67,9.32,1.9,13.63,2.37,8.29,6.85,15.61,12.77,21.24,7.75,7.38,17.96,11.88,29.14,11.88h158.28v-92.2c0-13.45-5.39-26.24-14.79-35.16ZM24.55,152.33v-45.44c0-6.8,2.65-13.16,7.26-17.46l56.14-58.93c-4.63,52.35-28.98,97.25-63.38,122.42,0-.2-.03-.39-.03-.59Zm19.26,22.2c-2,0-3.93-.36-5.75-1.01,11.39-8.21,21.97-18.29,31.49-30.14,24.99-31.11,40.03-71.19,43.15-114.26.44.39.88.8,1.3,1.24l28.27,29.69c-7.98,47.1-27.48,87.56-53.81,114.48h-44.65Zm133.73,0h-56.88c1.73-2.27,3.44-4.59,5.11-6.99,17.15-24.58,29.75-53.87,37.19-85.78l6.8,7.14.52.52c4.61,4.3,7.26,10.66,7.26,17.46v67.64Z"></path>
    <g>
      <path class="cls-1" d="m269.88,170.38c-3.83-1.22-5.05-2.96-5.05-6.8v-10.11c0-4.71,2.09-6.45,7.32-4.71,7.32,2.79,19.34,5.05,28.58,5.05,15.16,0,22.48-5.4,22.48-15.16,0-7.67-4.71-13.07-18.82-18.65l-10.11-4.01c-20.91-8.36-28.06-20.04-28.06-36.95,0-23.35,17.95-35.73,46.18-35.73,13.25,0,23.35,3.14,29.28,5.4,4.18,1.57,5.4,3.66,4.36,8.02l-2.09,9.06c-1.05,4.18-3.14,5.05-7.67,3.49-6.62-2.09-14.81-4.36-24.22-4.36-13.07,0-20.56,4.71-20.56,14.29,0,8.02,4.71,13.42,18.82,18.99l10.11,4.01c20.91,8.37,28.06,19.34,28.06,36.77,0,24.75-20.39,36.42-48.1,36.42-12.2,0-23.7-2.27-30.5-5.05Z"></path>
      <path class="cls-1" d="m396.21,168.64c-16.56-26.66-40.08-104.21-40.08-117.81,0-3.83,1.92-5.58,5.93-5.58h12.02c4.88,0,6.97,1.74,7.67,5.93,5.4,31.37,19.17,73.19,29.1,96.37,9.93-23.18,23.88-65,29.28-96.37.7-4.18,2.61-5.93,7.67-5.93h10.98c4.01,0,5.93,1.74,5.93,5.58,0,13.59-23.53,91.14-39.91,117.81-1.92,2.96-3.66,4.88-8.89,4.88h-10.98c-5.05,0-6.8-1.92-8.71-4.88Z"></path>
      <path class="cls-1" d="m474.41,167.24V51.53c0-4.53,1.92-6.27,6.27-6.27h14.29c4.36,0,6.97,1.74,9.06,5.75l36.25,70.58c2.79,5.23,5.58,10.98,7.67,16.21l.52-.17c-.7-5.93-.87-13.07-.87-19.17V51.53c0-4.36,1.92-6.27,6.27-6.27h11.15c4.18,0,6.1,1.92,6.1,6.27v115.72c0,4.53-1.92,6.27-6.1,6.27h-14.29c-4.53,0-7.15-1.74-9.06-5.75l-36.42-70.4c-2.61-5.23-5.58-10.98-7.49-16.38l-.52.17c.52,6.1.7,13.24.7,19.34v66.75c0,4.36-1.74,6.27-6.1,6.27h-11.15c-4.36,0-6.27-1.92-6.27-6.27Z"></path>
      <path class="cls-1" d="m590.29,167.24V51.53c0-4.53,1.92-6.27,6.27-6.27h11.68c4.36,0,6.1,1.74,6.1,6.27v54.9c20.91-17.43,35.2-38.34,42.7-55.42,2.09-4.36,4.01-5.75,8.54-5.75h12.9c5.58,0,6.1,4.71,4.18,9.06-5.23,13.24-17.08,30.85-33.98,49.49,16.73,15.51,32.76,41.82,39.39,60.12,1.57,4.36,1.39,9.59-4.36,9.59h-12.9c-4.71,0-6.97-1.74-8.54-5.75-6.62-15.51-16.21-34.68-31.02-47.92-4.71,4.01-10.8,8.89-16.9,13.24v34.16c0,4.53-1.74,6.27-6.1,6.27h-11.68c-4.36,0-6.27-1.74-6.27-6.27Z"></path>
    </g>
  </g>
</svg>
